<svg width="1200" height="900" viewBox="0 0 1200 900" fill="none" xmlns="http://www.w3.org/2000/svg">
  <defs>
    <linearGradient id="bg" x1="90" y1="60" x2="1080" y2="820" gradientUnits="userSpaceOnUse">
      <stop stop-color="#F8F4EF"/>
      <stop offset="1" stop-color="#E7F0F3"/>
    </linearGradient>
    <linearGradient id="panel" x1="270" y1="90" x2="820" y2="760" gradientUnits="userSpaceOnUse">
      <stop stop-color="#FDFEFE"/>
      <stop offset="1" stop-color="#F1F6F7"/>
    </linearGradient>
    <filter id="shadow" x="0" y="0" width="1200" height="900" filterUnits="userSpaceOnUse">
      <feDropShadow dx="0" dy="16" stdDeviation="24" flood-color="#162224" flood-opacity="0.14"/>
    </filter>
  </defs>

  <rect width="1200" height="900" fill="url(#bg)"/>
  <circle cx="180" cy="170" r="120" fill="#E8D9CE"/>
  <circle cx="1030" cy="170" r="130" fill="#D8E7F8"/>
  <circle cx="1080" cy="760" r="180" fill="#DCEFEA"/>

  <g filter="url(#shadow)">
    <rect x="228" y="92" width="560" height="700" rx="34" fill="url(#panel)"/>
    <rect x="228" y="92" width="560" height="700" rx="34" stroke="#D5E2E5" stroke-width="2"/>
  </g>

  <rect x="228" y="92" width="560" height="92" rx="34" fill="#152226"/>
  <text x="272" y="145" fill="#F3F8F8" font-size="30" font-family="Arial, Helvetica, sans-serif" font-weight="700">Case Detail</text>
  <rect x="622" y="118" width="112" height="40" rx="20" fill="#24353A"/>
  <text x="648" y="144" fill="#8ED9CE" font-size="18" font-family="Arial, Helvetica, sans-serif">In Room</text>

  <text x="274" y="228" fill="#445D63" font-size="18" font-family="Arial, Helvetica, sans-serif">Orthopedic Room 4</text>
  <text x="274" y="264" fill="#152226" font-size="38" font-family="Arial, Helvetica, sans-serif" font-weight="700">Total Knee Revision</text>
  <text x="274" y="296" fill="#6C848A" font-size="18" font-family="Arial, Helvetica, sans-serif">Dr. Rivera  |  Main OR  |  Scheduled 10:15</text>

  <g>
    <rect x="274" y="330" width="108" height="42" rx="21" fill="#E9F7F4"/>
    <text x="304" y="357" fill="#1E6157" font-size="16" font-family="Arial, Helvetica, sans-serif" font-weight="700">Planned</text>
    <rect x="396" y="330" width="96" height="42" rx="21" fill="#EDF3FF"/>
    <text x="428" y="357" fill="#2854A4" font-size="16" font-family="Arial, Helvetica, sans-serif" font-weight="700">Actual</text>
    <rect x="506" y="330" width="126" height="42" rx="21" fill="#FFF0ED"/>
    <text x="537" y="357" fill="#B35142" font-size="16" font-family="Arial, Helvetica, sans-serif" font-weight="700">Predicted</text>
  </g>

  <g>
    <text x="274" y="422" fill="#334B51" font-size="18" font-family="Arial, Helvetica, sans-serif" font-weight="700">Timeline</text>
    <line x1="294" y1="470" x2="706" y2="470" stroke="#D3E1E4" stroke-width="8" stroke-linecap="round"/>
    <line x1="294" y1="470" x2="514" y2="470" stroke="#8ED9CE" stroke-width="8" stroke-linecap="round"/>
    <line x1="514" y1="470" x2="610" y2="470" stroke="#4E90FF" stroke-width="8" stroke-linecap="round"/>
    <line x1="610" y1="470" x2="666" y2="470" stroke="#F28E79" stroke-width="8" stroke-linecap="round"/>
    <circle cx="294" cy="470" r="13" fill="#8ED9CE"/>
    <circle cx="514" cy="470" r="13" fill="#4E90FF"/>
    <circle cx="610" cy="470" r="13" fill="#F28E79"/>
    <circle cx="706" cy="470" r="13" fill="#D0D8DB"/>
  </g>

  <g fill="#445D63" font-size="16" font-family="Arial, Helvetica, sans-serif">
    <text x="274" y="514">10:11</text>
    <text x="478" y="514">11:28</text>
    <text x="582" y="514">12:02</text>
    <text x="676" y="514">12:34</text>
  </g>

  <g>
    <rect x="274" y="556" width="470" height="82" rx="22" fill="#F5F9FA"/>
    <circle cx="312" cy="597" r="12" fill="#8ED9CE"/>
    <text x="338" y="590" fill="#213338" font-size="18" font-family="Arial, Helvetica, sans-serif" font-weight="700">Patient In</text>
    <text x="338" y="616" fill="#6A8389" font-size="16" font-family="Arial, Helvetica, sans-serif">Auto-detected and confirmed</text>
    <text x="660" y="602" fill="#213338" font-size="18" font-family="Arial, Helvetica, sans-serif" text-anchor="end">10:11</text>
  </g>
  <g>
    <rect x="274" y="652" width="470" height="96" rx="22" fill="#F5F9FA"/>
    <circle cx="312" cy="693" r="12" fill="#4E90FF"/>
    <text x="338" y="686" fill="#213338" font-size="18" font-family="Arial, Helvetica, sans-serif" font-weight="700">Procedure Start</text>
    <text x="338" y="710" fill="#6A8389" font-size="15" font-family="Arial, Helvetica, sans-serif">
      <tspan x="338" dy="0">Runway updated for</tspan>
      <tspan x="338" dy="18">downstream teams</tspan>
    </text>
    <text x="660" y="698" fill="#213338" font-size="18" font-family="Arial, Helvetica, sans-serif" text-anchor="end">11:28</text>
  </g>

  <g filter="url(#shadow)">
    <rect x="836" y="170" width="262" height="188" rx="28" fill="#172427"/>
    <text x="870" y="220" fill="#EDF4F4" font-size="24" font-family="Arial, Helvetica, sans-serif" font-weight="700">Runway</text>
    <text x="870" y="254" fill="#97B6B1" font-size="17" font-family="Arial, Helvetica, sans-serif">
      <tspan x="870" dy="0">Predicted case</tspan>
      <tspan x="870" dy="18">complete</tspan>
    </text>
    <text x="870" y="324" fill="#F7FAFA" font-size="56" font-family="Arial, Helvetica, sans-serif" font-weight="700">12:34</text>
    <rect x="870" y="334" width="190" height="12" rx="6" fill="#32454A"/>
    <rect x="870" y="334" width="142" height="12" rx="6" fill="#F28E79"/>
  </g>

  <g filter="url(#shadow)">
    <rect x="826" y="396" width="282" height="162" rx="28" fill="#FFF8F4"/>
    <text x="860" y="444" fill="#24363B" font-size="22" font-family="Arial, Helvetica, sans-serif" font-weight="700">Why it matters</text>
    <text x="860" y="482" fill="#775C52" font-size="16" font-family="Arial, Helvetica, sans-serif">
      <tspan x="860" dy="0">The next team gets</tspan>
      <tspan x="860" dy="20">earlier signal on room</tspan>
      <tspan x="860" dy="20">readiness, delay, and</tspan>
      <tspan x="860" dy="20">turnover timing.</tspan>
    </text>
  </g>

  <g filter="url(#shadow)">
    <rect x="826" y="596" width="282" height="134" rx="28" fill="#EEF7F6"/>
    <text x="860" y="642" fill="#24363B" font-size="21" font-family="Arial, Helvetica, sans-serif" font-weight="700">
      <tspan x="860" dy="0">One case,</tspan>
      <tspan x="860" dy="22">one picture</tspan>
    </text>
    <text x="860" y="690" fill="#5E7E84" font-size="16" font-family="Arial, Helvetica, sans-serif">
      <tspan x="860" dy="0">Planned, actual, and predicted</tspan>
      <tspan x="860" dy="20">without leaving the board.</tspan>
    </text>
  </g>
</svg>
