<svg width="1400" height="900" viewBox="0 0 1400 900" fill="none" xmlns="http://www.w3.org/2000/svg">
  <defs>
    <linearGradient id="bg" x1="110" y1="80" x2="1280" y2="820" gradientUnits="userSpaceOnUse">
      <stop stop-color="#F8F2EB"/>
      <stop offset="0.58" stop-color="#F8F7F2"/>
      <stop offset="1" stop-color="#EAF1F8"/>
    </linearGradient>
    <linearGradient id="panel" x1="150" y1="150" x2="1250" y2="760" gradientUnits="userSpaceOnUse">
      <stop stop-color="#FFFFFF"/>
      <stop offset="1" stop-color="#F1F6F7"/>
    </linearGradient>
    <filter id="shadow" x="0" y="0" width="1400" height="900" filterUnits="userSpaceOnUse">
      <feDropShadow dx="0" dy="18" stdDeviation="28" flood-color="#132024" flood-opacity="0.14"/>
    </filter>
  </defs>

  <rect width="1400" height="900" fill="url(#bg)"/>
  <circle cx="160" cy="160" r="120" fill="#E9DDD2"/>
  <circle cx="1230" cy="180" r="150" fill="#DCE8F7"/>
  <circle cx="1180" cy="760" r="170" fill="#E0F0E8"/>

  <g filter="url(#shadow)">
    <rect x="128" y="128" width="1144" height="644" rx="36" fill="url(#panel)"/>
    <rect x="128" y="128" width="1144" height="644" rx="36" stroke="#D6E2E5" stroke-width="2"/>
  </g>

  <text x="184" y="204" fill="#203136" font-size="34" font-family="Arial, Helvetica, sans-serif" font-weight="700">Turnover analysis</text>
  <text x="184" y="238" fill="#617A80" font-size="18" font-family="Arial, Helvetica, sans-serif">
    <tspan x="184" dy="0">Operational insight derived from room-state transitions</tspan>
    <tspan x="184" dy="20">and actual case flow.</tspan>
  </text>

  <g>
    <rect x="184" y="284" width="220" height="110" rx="24" fill="#EEF7F6"/>
    <text x="216" y="328" fill="#4A7076" font-size="18" font-family="Arial, Helvetica, sans-serif">Average turnover</text>
    <text x="216" y="372" fill="#1E3136" font-size="42" font-family="Arial, Helvetica, sans-serif" font-weight="700">31 min</text>
  </g>
  <g>
    <rect x="426" y="284" width="220" height="110" rx="24" fill="#FFF7F4"/>
    <text x="458" y="328" fill="#906154" font-size="18" font-family="Arial, Helvetica, sans-serif">90th percentile</text>
    <text x="458" y="372" fill="#1E3136" font-size="42" font-family="Arial, Helvetica, sans-serif" font-weight="700">46 min</text>
  </g>
  <g>
    <rect x="668" y="284" width="220" height="120" rx="24" fill="#EEF3FF"/>
    <text x="700" y="324" fill="#4B66A1" font-size="17" font-family="Arial, Helvetica, sans-serif">
      <tspan x="700" dy="0">On-time room</tspan>
      <tspan x="700" dy="18">ready</tspan>
    </text>
    <text x="700" y="380" fill="#1E3136" font-size="42" font-family="Arial, Helvetica, sans-serif" font-weight="700">78%</text>
  </g>
  <g>
    <rect x="910" y="284" width="220" height="110" rx="24" fill="#F7F7F7"/>
    <text x="942" y="328" fill="#6A7E84" font-size="18" font-family="Arial, Helvetica, sans-serif">Outliers this week</text>
    <text x="942" y="372" fill="#1E3136" font-size="42" font-family="Arial, Helvetica, sans-serif" font-weight="700">9</text>
  </g>

  <g>
    <rect x="184" y="434" width="438" height="276" rx="30" fill="#FCFDFD"/>
    <text x="220" y="484" fill="#223438" font-size="24" font-family="Arial, Helvetica, sans-serif" font-weight="700">Distribution</text>
    <g fill="#F28E79">
      <rect x="238" y="632" width="34" height="28" rx="10"/>
      <rect x="286" y="600" width="34" height="60" rx="10"/>
      <rect x="334" y="548" width="34" height="112" rx="10"/>
      <rect x="382" y="496" width="34" height="164" rx="10"/>
      <rect x="430" y="454" width="34" height="206" rx="10"/>
      <rect x="478" y="516" width="34" height="144" rx="10"/>
      <rect x="526" y="572" width="34" height="88" rx="10"/>
    </g>
    <line x1="226" y1="660" x2="578" y2="660" stroke="#D6E2E5" stroke-width="3" stroke-linecap="round"/>
    <text x="236" y="694" fill="#70878D" font-size="16" font-family="Arial, Helvetica, sans-serif">15m</text>
    <text x="330" y="694" fill="#70878D" font-size="16" font-family="Arial, Helvetica, sans-serif">25m</text>
    <text x="426" y="694" fill="#70878D" font-size="16" font-family="Arial, Helvetica, sans-serif">35m</text>
    <text x="522" y="694" fill="#70878D" font-size="16" font-family="Arial, Helvetica, sans-serif">45m</text>
  </g>

  <g>
    <rect x="652" y="434" width="338" height="276" rx="30" fill="#FCFDFD"/>
    <text x="688" y="484" fill="#223438" font-size="24" font-family="Arial, Helvetica, sans-serif" font-weight="700">Trend</text>
    <polyline points="694,632 742,610 790,596 838,554 886,570 934,520" fill="none" stroke="#4E90FF" stroke-width="8" stroke-linecap="round" stroke-linejoin="round"/>
    <polyline points="694,648 742,644 790,626 838,608 886,620 934,594" fill="none" stroke="#8ED9CE" stroke-width="8" stroke-linecap="round" stroke-linejoin="round" opacity="0.9"/>
    <g fill="#4E90FF">
      <circle cx="694" cy="632" r="8"/>
      <circle cx="742" cy="610" r="8"/>
      <circle cx="790" cy="596" r="8"/>
      <circle cx="838" cy="554" r="8"/>
      <circle cx="886" cy="570" r="8"/>
      <circle cx="934" cy="520" r="8"/>
    </g>
    <line x1="688" y1="660" x2="948" y2="660" stroke="#D6E2E5" stroke-width="3" stroke-linecap="round"/>
    <text x="692" y="694" fill="#70878D" font-size="16" font-family="Arial, Helvetica, sans-serif">Mon</text>
    <text x="742" y="694" fill="#70878D" font-size="16" font-family="Arial, Helvetica, sans-serif">Tue</text>
    <text x="792" y="694" fill="#70878D" font-size="16" font-family="Arial, Helvetica, sans-serif">Wed</text>
    <text x="842" y="694" fill="#70878D" font-size="16" font-family="Arial, Helvetica, sans-serif">Thu</text>
    <text x="892" y="694" fill="#70878D" font-size="16" font-family="Arial, Helvetica, sans-serif">Fri</text>
  </g>

  <g>
    <rect x="1018" y="434" width="186" height="276" rx="30" fill="#192629"/>
    <text x="1052" y="484" fill="#EEF4F4" font-size="24" font-family="Arial, Helvetica, sans-serif" font-weight="700">Outliers</text>
    <g>
      <rect x="1052" y="516" width="118" height="14" rx="7" fill="#31464B"/>
      <rect x="1052" y="516" width="92" height="14" rx="7" fill="#F28E79"/>
      <text x="1052" y="554" fill="#A7C0BC" font-size="16" font-family="Arial, Helvetica, sans-serif">OR-4  52m</text>
    </g>
    <g>
      <rect x="1052" y="578" width="118" height="14" rx="7" fill="#31464B"/>
      <rect x="1052" y="578" width="84" height="14" rx="7" fill="#F4C86A"/>
      <text x="1052" y="616" fill="#A7C0BC" font-size="16" font-family="Arial, Helvetica, sans-serif">OR-2  47m</text>
    </g>
    <g>
      <rect x="1052" y="640" width="118" height="14" rx="7" fill="#31464B"/>
      <rect x="1052" y="640" width="74" height="14" rx="7" fill="#8ED9CE"/>
      <text x="1052" y="678" fill="#A7C0BC" font-size="16" font-family="Arial, Helvetica, sans-serif">OR-7  43m</text>
    </g>
  </g>

  <g filter="url(#shadow)">
    <rect x="964" y="118" width="286" height="112" rx="24" fill="#FFFFFF"/>
    <text x="996" y="160" fill="#213338" font-size="19" font-family="Arial, Helvetica, sans-serif" font-weight="700">
      <tspan x="996" dy="0">Analytics that</tspan>
      <tspan x="996" dy="20">stay usable</tspan>
    </text>
    <text x="996" y="204" fill="#627C82" font-size="16" font-family="Arial, Helvetica, sans-serif">Simple enough for a public story.</text>
  </g>
</svg>
