<svg width="1330" height="860" viewBox="110 100 1330 860" fill="none" xmlns="http://www.w3.org/2000/svg">
  <defs>
    <linearGradient id="bg" x1="120" y1="80" x2="1480" y2="920" gradientUnits="userSpaceOnUse">
      <stop stop-color="#F6F0E8"/>
      <stop offset="0.55" stop-color="#F7F5EF"/>
      <stop offset="1" stop-color="#E7F0EF"/>
    </linearGradient>
    <linearGradient id="panel" x1="340" y1="180" x2="1260" y2="820" gradientUnits="userSpaceOnUse">
      <stop stop-color="#172225"/>
      <stop offset="1" stop-color="#243438"/>
    </linearGradient>
    <linearGradient id="badge" x1="0" y1="0" x2="1" y2="1">
      <stop stop-color="#8DDAD0"/>
      <stop offset="1" stop-color="#4E90FF"/>
    </linearGradient>
    <filter id="shadow" x="0" y="0" width="1600" height="1000" filterUnits="userSpaceOnUse">
      <feDropShadow dx="0" dy="18" stdDeviation="28" flood-color="#1A1B1C" flood-opacity="0.16"/>
    </filter>
    <filter id="soft" x="-40%" y="-40%" width="180%" height="180%">
      <feDropShadow dx="0" dy="8" stdDeviation="18" flood-color="#0A1114" flood-opacity="0.12"/>
    </filter>
  </defs>

  <rect width="1600" height="1000" fill="url(#bg)"/>
  <circle cx="220" cy="220" r="160" fill="#DDEEEE"/>
  <circle cx="1450" cy="190" r="190" fill="#F3E2D6"/>
  <circle cx="1360" cy="840" r="240" fill="#D8E5F8"/>

  <g opacity="0.35">
    <path d="M108 732C274 640 406 610 580 648C730 680 852 766 1058 748C1230 734 1352 638 1490 550" stroke="#2A4D53" stroke-width="3" stroke-linecap="round"/>
    <path d="M92 774C280 676 462 678 624 722C782 764 904 844 1116 824C1268 810 1376 742 1488 680" stroke="#6F8FA4" stroke-width="2" stroke-linecap="round"/>
  </g>

  <g filter="url(#shadow)">
    <rect x="260" y="145" width="1080" height="710" rx="34" fill="url(#panel)"/>
    <rect x="260" y="145" width="1080" height="710" rx="34" stroke="#31464B" stroke-width="2"/>
  </g>

  <rect x="260" y="145" width="1080" height="88" rx="34" fill="#10181B"/>
  <circle cx="320" cy="189" r="8" fill="#F28E79"/>
  <circle cx="347" cy="189" r="8" fill="#F4C86A"/>
  <circle cx="374" cy="189" r="8" fill="#7CD8C5"/>
  <text x="425" y="196" fill="#ECF3F2" font-size="28" font-family="Arial, Helvetica, sans-serif" font-weight="700">PeriSmart OR Board</text>

  <rect x="1010" y="169" width="128" height="40" rx="20" fill="#1D2A2F"/>
  <text x="1052" y="194" fill="#9FD9CF" font-size="18" font-family="Arial, Helvetica, sans-serif">Live</text>
  <rect x="1154" y="169" width="150" height="40" rx="20" fill="#24363B"/>
  <text x="1184" y="194" fill="#EAF2F1" font-size="18" font-family="Arial, Helvetica, sans-serif">Today</text>

  <rect x="304" y="270" width="240" height="520" rx="24" fill="#132024"/>
  <text x="336" y="322" fill="#BFD3CF" font-size="20" font-family="Arial, Helvetica, sans-serif" font-weight="700">Operations Snapshot</text>

  <g>
    <rect x="336" y="356" width="176" height="78" rx="18" fill="#1A2A2E"/>
    <text x="362" y="388" fill="#95B5AF" font-size="16" font-family="Arial, Helvetica, sans-serif">Rooms running</text>
    <text x="364" y="420" fill="#F8FBFB" font-size="34" font-family="Arial, Helvetica, sans-serif" font-weight="700">12</text>
    <circle cx="478" cy="396" r="15" fill="#7CD8C5"/>
  </g>
  <g>
    <rect x="336" y="452" width="176" height="78" rx="18" fill="#1A2A2E"/>
    <text x="362" y="484" fill="#95B5AF" font-size="16" font-family="Arial, Helvetica, sans-serif">At-risk cases</text>
    <text x="364" y="516" fill="#F8FBFB" font-size="34" font-family="Arial, Helvetica, sans-serif" font-weight="700">4</text>
    <circle cx="478" cy="492" r="15" fill="#F28E79"/>
  </g>
  <g>
    <rect x="336" y="548" width="176" height="78" rx="18" fill="#1A2A2E"/>
    <text x="362" y="580" fill="#95B5AF" font-size="16" font-family="Arial, Helvetica, sans-serif">Turnovers now</text>
    <text x="364" y="612" fill="#F8FBFB" font-size="34" font-family="Arial, Helvetica, sans-serif" font-weight="700">3</text>
    <circle cx="478" cy="588" r="15" fill="#F4C86A"/>
  </g>
  <g>
    <rect x="336" y="644" width="176" height="116" rx="18" fill="#1A2A2E"/>
    <text x="362" y="676" fill="#95B5AF" font-size="16" font-family="Arial, Helvetica, sans-serif">Overtime forecast</text>
    <text x="364" y="712" fill="#F8FBFB" font-size="42" font-family="Arial, Helvetica, sans-serif" font-weight="700">84m</text>
    <rect x="364" y="728" width="120" height="10" rx="5" fill="#304549"/>
    <rect x="364" y="728" width="84" height="10" rx="5" fill="#F28E79"/>
  </g>

  <rect x="574" y="270" width="722" height="520" rx="24" fill="#F5F8F8"/>
  <text x="610" y="318" fill="#31484F" font-size="18" font-family="Arial, Helvetica, sans-serif" font-weight="700">Planned / Actual / Predicted</text>

  <g fill="#8AA3A9" font-size="15" font-family="Arial, Helvetica, sans-serif">
    <text x="704" y="352">07:00</text>
    <text x="810" y="352">09:00</text>
    <text x="916" y="352">11:00</text>
    <text x="1022" y="352">13:00</text>
    <text x="1128" y="352">15:00</text>
    <text x="1234" y="352">17:00</text>
  </g>

  <g stroke="#D8E3E5" stroke-width="2">
    <line x1="680" y1="370" x2="680" y2="748"/>
    <line x1="786" y1="370" x2="786" y2="748"/>
    <line x1="892" y1="370" x2="892" y2="748"/>
    <line x1="998" y1="370" x2="998" y2="748"/>
    <line x1="1104" y1="370" x2="1104" y2="748"/>
    <line x1="1210" y1="370" x2="1210" y2="748"/>
  </g>

  <g fill="#6B848B" font-size="16" font-family="Arial, Helvetica, sans-serif" font-weight="700">
    <text x="612" y="405">OR-1</text>
    <text x="612" y="471">OR-2</text>
    <text x="612" y="537">OR-3</text>
    <text x="612" y="603">OR-4</text>
    <text x="612" y="669">OR-5</text>
    <text x="612" y="735">OR-6</text>
  </g>

  <g stroke="#E3ECEE" stroke-width="2">
    <line x1="610" y1="424" x2="1268" y2="424"/>
    <line x1="610" y1="490" x2="1268" y2="490"/>
    <line x1="610" y1="556" x2="1268" y2="556"/>
    <line x1="610" y1="622" x2="1268" y2="622"/>
    <line x1="610" y1="688" x2="1268" y2="688"/>
    <line x1="610" y1="754" x2="1268" y2="754"/>
  </g>

  <g>
    <rect x="694" y="382" width="182" height="28" rx="14" fill="#8DDAD0"/>
    <rect x="886" y="382" width="112" height="28" rx="14" fill="#4E90FF"/>
    <rect x="1008" y="382" width="154" height="28" rx="14" fill="#C7D2D8"/>
    <rect x="1168" y="382" width="84" height="28" rx="14" fill="#F4C86A"/>
  </g>
  <g>
    <rect x="744" y="448" width="164" height="28" rx="14" fill="#4E90FF"/>
    <rect x="918" y="448" width="180" height="28" rx="14" fill="#F28E79"/>
    <rect x="1108" y="448" width="92" height="28" rx="14" fill="#8DDAD0"/>
  </g>
  <g>
    <rect x="716" y="514" width="126" height="28" rx="14" fill="#F4C86A"/>
    <rect x="854" y="514" width="196" height="28" rx="14" fill="#8DDAD0"/>
    <rect x="1060" y="514" width="150" height="28" rx="14" fill="#4E90FF"/>
  </g>
  <g>
    <rect x="702" y="580" width="152" height="28" rx="14" fill="#DADDE0"/>
    <rect x="866" y="580" width="110" height="28" rx="14" fill="#F28E79"/>
    <rect x="986" y="580" width="200" height="28" rx="14" fill="#8DDAD0"/>
  </g>
  <g>
    <rect x="770" y="646" width="220" height="28" rx="14" fill="#4E90FF"/>
    <rect x="1002" y="646" width="136" height="28" rx="14" fill="#C7D2D8"/>
    <rect x="1148" y="646" width="74" height="28" rx="14" fill="#F4C86A"/>
  </g>
  <g>
    <rect x="684" y="712" width="148" height="28" rx="14" fill="#8DDAD0"/>
    <rect x="846" y="712" width="170" height="28" rx="14" fill="#4E90FF"/>
    <rect x="1026" y="712" width="120" height="28" rx="14" fill="#F28E79"/>
  </g>

  <line x1="954" y1="360" x2="954" y2="760" stroke="#203236" stroke-width="4" stroke-dasharray="10 10"/>
  <rect x="910" y="320" width="88" height="30" rx="15" fill="url(#badge)"/>
  <text x="934" y="340" fill="#0F171A" font-size="14" font-family="Arial, Helvetica, sans-serif" font-weight="700">NOW</text>

  <g filter="url(#soft)">
    <rect x="1136" y="236" width="256" height="126" rx="24" fill="#FBFCFC"/>
    <text x="1166" y="278" fill="#203136" font-size="18" font-family="Arial, Helvetica, sans-serif" font-weight="700">Case ending soon</text>
    <text x="1166" y="306" fill="#6D8388" font-size="14" font-family="Arial, Helvetica, sans-serif">
      <tspan x="1166" dy="0">OR-2 predicted</tspan>
      <tspan x="1166" dy="18">complete in 14m</tspan>
    </text>
    <rect x="1166" y="334" width="108" height="12" rx="6" fill="#DDE6E7"/>
    <rect x="1166" y="334" width="68" height="12" rx="6" fill="#F28E79"/>
  </g>

  <g filter="url(#soft)">
    <rect x="154" y="222" width="244" height="138" rx="24" fill="#FDF6EF"/>
    <text x="184" y="264" fill="#3B3028" font-size="17" font-family="Arial, Helvetica, sans-serif" font-weight="700">Earlier coordination</text>
    <text x="184" y="290" fill="#7A6257" font-size="13" font-family="Arial, Helvetica, sans-serif">
      <tspan x="184" dy="0">Shared operational</tspan>
      <tspan x="184" dy="17">view for pre-op, OR,</tspan>
      <tspan x="184" dy="17">anesthesia, and</tspan>
      <tspan x="184" dy="17">PACU teams.</tspan>
    </text>
  </g>

  <g filter="url(#soft)">
    <rect x="1074" y="784" width="290" height="126" rx="24" fill="#EDF7F4"/>
    <text x="1104" y="826" fill="#203136" font-size="18" font-family="Arial, Helvetica, sans-serif" font-weight="700">
      <tspan x="1104" dy="0">Planned. Actual.</tspan>
      <tspan x="1104" dy="22">Predicted.</tspan>
    </text>
    <text x="1104" y="878" fill="#618188" font-size="15" font-family="Arial, Helvetica, sans-serif">One view of the surgical day.</text>
  </g>
</svg>
